<?xml version="1.0" encoding="iso-8859-1"?>
<!-- Generator: Adobe Illustrator 19.0.0, SVG Export Plug-In . SVG Version: 6.00 Build 0)  -->
<svg version="1.1" id="Layer_1" xmlns="http://www.w3.org/2000/svg" xmlns:xlink="http://www.w3.org/1999/xlink" x="0px" y="0px"
	 viewBox="0 0 297.834 297.834" style="enable-background:new 0 0 297.834 297.834;" xml:space="preserve">
<g>
	<path style="fill:#394C81;" d="M255.944,224.621c-2.925-13.486-13.435-24.034-26.91-27.008l-59.503-13.134h-41.269l-59.503,13.133
		c-13.475,2.974-23.985,13.522-26.91,27.008l-9.126,42.076c13.14,8.612,28.709,15.764,46.016,21.034
		c21.242,6.469,45.104,10.102,70.326,10.102c25.092,0,48.839-3.595,69.999-10.001c17.31-5.241,32.886-12.364,46.047-20.945
		L255.944,224.621z"/>
	<path style="fill:#394C81;" d="M255.944,224.621c-2.925-13.486-13.435-24.034-26.91-27.008l-49.316-5.885
		c-1.153,15.917-30.822,35.606-30.822,35.606s-29.338-19.732-30.45-35.688l-49.688,5.967c-13.475,2.974-23.985,13.522-26.91,27.008
		l-9.126,42.076c13.14,8.612,28.709,15.764,46.016,21.034c21.242,6.469,45.186,4.686,70.408,4.686
		c25.092,0,48.757,1.822,69.917-4.584c17.31-5.241,32.886-12.364,46.047-20.945L255.944,224.621z"/>
	<g>
		<path style="fill:#25375E;" d="M128.261,184.479h41.269c0,0,0.938,20.772-19.681,20.772S128.23,188.687,128.261,184.479z"/>
	</g>
	<g>
		<rect x="132.085" y="161.833" style="fill:#DDC29B;" width="34" height="51"/>
	</g>
	<g>
		<path style="fill:#E8D8BF;" d="M234.247,106.553c0-7.098-4.379-13.164-10.578-15.671c0.222-2.471,0.341-4.918,0.341-7.327
			c0-41.38-33.545-56.194-74.925-56.194S74.16,42.175,74.16,83.555c0,2.409,0.118,4.856,0.341,7.327
			c-6.199,2.507-10.578,8.573-10.578,15.671c0,9.179,12.356,21.685,21.646,22.107c13.249,26.661,36.74,48.551,63.516,48.551
			s50.267-21.89,63.516-48.551C221.891,128.238,234.247,115.733,234.247,106.553z"/>
	</g>
	<g>
		<path style="fill:#394C81;" d="M149.085,230.333c16.211,0,29.48-27.688,30.633-43.606l-10.188-2.249
			c0,11.481-20.481,28.354-20.481,28.354s-20.788-16.873-20.789-28.354l-9.816,2.166
			C119.558,202.602,132.846,230.333,149.085,230.333z"/>
	</g>
	<g>
		<path style="fill:#5065A1;" d="M179.718,186.728c-1.153,15.917-30.822,40.606-30.822,40.606s-29.338-24.732-30.45-40.688
			l-49.025,10.821c14.126,28.117,12.31,59.393,9.318,90.265c21.242,6.469,45.104,10.102,70.326,10.102
			c25.092,0,48.839-3.595,69.999-10.001c-2.998-30.905-4.834-62.218,9.308-90.366L179.718,186.728z"/>
	</g>
	<g>
		<g>
			<path style="fill:#FFFFFF;" d="M177.455,263.644v-14.732c-2.741,2.104-4.587,3.156-5.537,3.156c-0.453,0-0.855-0.181-1.206-0.542
				s-0.525-0.779-0.525-1.255c0-0.551,0.172-0.955,0.518-1.214c0.346-0.26,0.955-0.594,1.829-1.004
				c1.307-0.615,2.351-1.263,3.133-1.943c0.783-0.68,1.477-1.44,2.081-2.282c0.604-0.842,0.998-1.36,1.182-1.555
				c0.184-0.193,0.528-0.291,1.036-0.291c0.572,0,1.03,0.222,1.376,0.664s0.519,1.052,0.519,1.829v18.537
				c0,2.17-0.74,3.254-2.219,3.254c-0.658,0-1.188-0.221-1.586-0.663C177.655,265.16,177.455,264.507,177.455,263.644z"/>
		</g>
		<g>
			<path style="fill:#FFFFFF;" d="M205.933,254.221c0,1.771-0.108,3.292-0.324,4.565c-0.216,1.274-0.615,2.429-1.198,3.465
				c-0.733,1.273-1.684,2.256-2.849,2.946c-1.166,0.69-2.461,1.036-3.886,1.036c-1.641,0-3.111-0.464-4.412-1.392
				c-1.301-0.929-2.28-2.213-2.938-3.854c-0.334-0.896-0.58-1.886-0.736-2.971s-0.234-2.259-0.234-3.521
				c0-1.63,0.086-3.098,0.259-4.403c0.172-1.306,0.442-2.429,0.81-3.368c0.637-1.554,1.562-2.738,2.776-3.553
				c1.214-0.815,2.663-1.223,4.347-1.223c1.111,0,2.121,0.181,3.027,0.542c0.907,0.362,1.703,0.891,2.389,1.587
				c0.685,0.696,1.265,1.557,1.74,2.582C205.523,248.442,205.933,250.962,205.933,254.221z M201.497,253.898
				c0-1.976-0.119-3.592-0.356-4.85c-0.237-1.257-0.637-2.207-1.197-2.849c-0.562-0.643-1.339-0.964-2.332-0.964
				c-1.424,0-2.415,0.718-2.971,2.153s-0.833,3.648-0.833,6.638c0,2.029,0.118,3.691,0.355,4.986
				c0.237,1.296,0.637,2.275,1.198,2.938c0.562,0.664,1.322,0.996,2.283,0.996c0.992,0,1.77-0.346,2.331-1.036
				c0.561-0.69,0.955-1.679,1.182-2.963S201.497,255.981,201.497,253.898z"/>
		</g>
	</g>
	<g>
		<path style="fill:#DDCDB6;" d="M223.647,90.882c0.222-2.471,0.341-4.918,0.341-7.327c0-41.38-33.545-56.194-74.925-56.194
			S74.138,42.175,74.138,83.555c0,2.409,0.118,4.856,0.341,7.327c-6.2,2.507-10.579,8.573-10.579,15.671
			c0,9.179,12.356,21.685,21.646,22.107c13.249,26.661,36.74,48.551,63.516,48.551s50.267-21.89,63.516-48.551
			c9.29-0.422,21.646-12.928,21.646-22.107C234.225,99.455,229.847,93.389,223.647,90.882z M149.063,174.741
			c-31.403,0-56.86-51.012-56.86-83.904s25.457-45.281,56.86-45.281s56.86,12.389,56.86,45.281S180.466,174.741,149.063,174.741z"/>
	</g>
	<g>
		<path style="fill:#2B2B2B;" d="M216.962,27.481C192.73-4.065,153.397,3.27,153.397,3.27c-23.5-12.695-69.148,13.719-79.167,42.39
			c-6.656,19.048-5.326,33.872-2.151,44.564c0.933,3.142,5.136,12.062,5.136,12.062l0,0c2.028,4.558,4.604,10.148,7.635,16.319
			c0,0-2.399-8.353-2.628-17.503c21.415-5.994,30.008-21.223,30.008-21.223v9.624c17.5-5.347,42.5-28.873,42.5-28.873l-2.5,9.09
			c18-0.535,27.488-12.832,27.488-12.832c9.597,23.023,25.075,34.307,34.435,39.307c0.001,11.266-5.125,23.763-5.125,23.763
			c7.027-6.464,10.803-14.833,13.363-20.885C228.645,84.293,237.083,53.676,216.962,27.481z"/>
	</g>
	<g>
		<g>
			<path style="fill:#020202;" d="M74.23,62.407c10.019-28.672,55.667-55.085,79.167-42.391c0,0,39.333-7.335,63.565,24.211
				c7.541,9.818,10.833,20.42,12.058,30.454c1.666-14.425-0.153-31.702-12.058-47.201C192.73-4.065,153.397,3.27,153.397,3.27
				c-23.5-12.695-69.148,13.719-79.167,42.39c-4.695,13.436-5.187,25.113-4.081,34.326C70.776,74.553,72.04,68.675,74.23,62.407z"/>
		</g>
	</g>
</g>
<g>
</g>
<g>
</g>
<g>
</g>
<g>
</g>
<g>
</g>
<g>
</g>
<g>
</g>
<g>
</g>
<g>
</g>
<g>
</g>
<g>
</g>
<g>
</g>
<g>
</g>
<g>
</g>
<g>
</g>
</svg>
